<svg width="76" height="72" viewBox="0 0 76 72" fill="none" xmlns="http://www.w3.org/2000/svg">
<g clip-path="url(#clip0_202_3)">
<rect width="76" height="72" fill="white"/>
<path d="M8.87397 2.78886C20.5329 12.7081 27.0696 18.2694 38.7285 28.1886" stroke="#0AFFA7"/>
<path d="M38.3653 28.2092L52.1335 12.08" stroke="#0AFFA7"/>
<path d="M12.2295 27.8616L30.2975 39.8756" stroke="#0AFFA7"/>
<path d="M30.0394 39.8756L30.0394 72" stroke="#0AFFA7"/>
<path d="M47.8493 41.965L48.2709 60.8" stroke="#0AFFA7"/>
<path d="M47.8493 42.1175L75.2165 6.46313" stroke="#0AFFA7"/>
<path d="M8.87399 2.78888L12.2295 28.1228" stroke="#0AFFA7"/>
<path d="M30.0394 72L48.568 60.8" stroke="#0AFFA7"/>
<path d="M51.9792 12.1911L75.4745 6.22819" stroke="#0AFFA7"/>
<path d="M38.8159 36.2365L38.8159 27.8616" stroke="#0AFFA7"/>
<path d="M38.8153 36.2191L29.8748 40.119" stroke="#0AFFA7"/>
<path d="M38.8153 36.2191L47.9895 41.7457" stroke="#0AFFA7"/>
<path d="M29.5446 39.4574L22.5541 23.4216" stroke="#0AFFA7"/>
<path d="M38.4659 28.04L22.296 23.4216" stroke="#0AFFA7"/>
<path d="M12.1293 27.6209L22.5541 23.4216" stroke="#0AFFA7"/>
<path d="M9.34773 3.16767L22.5541 23.4216" stroke="#0AFFA7"/>
<line y1="-0.5" x2="16.0817" y2="-0.5" transform="matrix(-0.224703 0.974427 -0.973242 -0.229781 51.9792 12.1912)" stroke="#0AFFA7"/>
<path d="M48.3655 28.3839L75.2165 6.46308" stroke="#0AFFA7"/>
<path d="M48.6624 27.8727L47.9738 41.48" stroke="#0AFFA7"/>
<path d="M48.5 28.4865L38.4991 28.0135" stroke="#0AFFA7"/>
<line y1="-0.5" x2="12.4977" y2="-0.5" transform="matrix(-0.743507 0.668728 -0.659983 -0.751281 48.3655 27.8616)" stroke="#0AFFA7"/>
<path d="M22.2959 23.4216L38.7192 36.0158" stroke="#0AFFA7"/>
<path d="M38.8152 36.2124L38.8152 55.76" stroke="#0AFFA7"/>
<path d="M39.0734 56.3296L30.0696 39.9981" stroke="#0AFFA7"/>
<path d="M39.0734 56.3295L47.6287 41.8294" stroke="#0AFFA7"/>
<path d="M39.0734 56.0684L30.0006 71.8766" stroke="#0AFFA7"/>
<line y1="-0.5" x2="10.1885" y2="-0.5" transform="matrix(0.91202 0.410146 -0.402154 0.915572 39.0734 56.5907)" stroke="#0AFFA7"/>
</g>
<defs>
<clipPath id="clip0_202_3">
<rect width="76" height="72" fill="white"/>
</clipPath>
</defs>
</svg>
